<?xml version="1.0" encoding="UTF-8"?><svg id="Layer_2" xmlns="http://www.w3.org/2000/svg" viewBox="0 0 232.21 247.56"><defs><style>.cls-1{stroke-width:2px;}.cls-1,.cls-2{fill:none;stroke:#050606;stroke-miterlimit:10;}.cls-2{stroke-width:8px;}.cls-3,.cls-4,.cls-5{stroke-width:0px;}.cls-4{fill:#231f20;}.cls-5{fill:#050606;}</style></defs><g id="Layer_1-2"><path class="cls-4" d="m100.37,86.47v-17.13l11.69,12.23v-11.14h2.42v17.01l-11.69-12.2v11.23h-2.42Z"/><path class="cls-4" d="m120.75,76.71h6.92v-6.27h2.42v16.04h-2.42v-7.49h-6.92v7.49h-2.42v-16.04h2.42v6.27Z"/><polygon class="cls-2" points="95.41 14.66 95.73 35.63 133.84 35.47 136.14 14.33 123.02 22.06 115.98 8.39 108.35 21.78 95.41 14.66"/></g><g id="Layer_2-2"><path class="cls-5" d="m130.94,58.87l-6.47-2.67c.17-.42,4.37-10.39,14.9-12.25l1.22,6.89c-6.69,1.18-9.62,7.95-9.65,8.02Z"/><path class="cls-5" d="m99.13,58.87c-.03-.07-2.96-6.84-9.65-8.02l1.22-6.89c10.54,1.86,14.73,11.82,14.9,12.25l-6.47,2.67Z"/><path class="cls-3" d="m161.83,131.17l-15.68-24.02,4.76-1.71c24.91-8.97,50.52,4.45,51.6,5.03l-3.77,7.06,1.88-3.53-1.88,3.53c-.22-.12-20.19-10.52-40.19-6l9.97,15.27-6.7,4.37Z"/><path class="cls-3" d="m193.14,110.86c.9-1.78,1.51-3.07,1.51-3.09l7.8,2.69c-1.67,5.99-8.27,16.32-21.2,16.32-.53,0-1.06-.02-1.61-.05l9.19-9.74c1.72-1.82,3.18-3.9,4.3-6.14Z"/><path class="cls-3" d="m70.37,132.17l-6.7-4.37,9.97-15.27c-20-4.52-39.97,5.89-40.19,6l-3.76-7.06c1.08-.58,26.7-14,51.6-5.03l4.76,1.71-15.68,24.02Z"/><path class="cls-3" d="m39.07,111.95c-.9-1.78-1.51-3.07-1.51-3.09l-7.8,2.69c1.67,5.99,8.27,16.32,21.2,16.32.53,0,1.06-.02,1.61-.05l-9.19-9.74c-1.72-1.82-3.18-3.9-4.3-6.14Z"/><circle class="cls-1" cx="115.23" cy="78.78" r="20.32"/><path class="cls-3" d="m222.69,107.01c-21.43-21.89-53.31-27.9-80.49-17.05,1.44-3.45,2.23-7.23,2.23-11.19,0-16.1-13.1-29.2-29.2-29.2s-29.2,13.1-29.2,29.2c0,4.12.86,8.03,2.41,11.59-26.84-10.01-57.9-3.82-78.92,17.65L0,117.74l6.96,7.58c13.6,14.83,32.41,23.05,52.3,23.05h0c-1.59,5.65-2.4,11.48-2.4,17.34v11l6.04.47c1.43.11,2.86.17,4.28.17.9,0,1.8-.03,2.7-.07.04,6.56.62,13.06,1.77,19.35l2.45,10.35c5.88,19.87,17.19,34.17,31.1,39.25l2.63.52c2.78.55,5.58.83,8.38.83s5.6-.28,8.38-.83l2.63-.52.07-.02c13.84-5.06,25.15-19.36,31.04-39.25l2.45-10.35c1.18-6.49,1.78-13.23,1.78-20.01,0-.1,0-.19,0-.29.81.04,1.62.06,2.44.06,1.42,0,2.85-.06,4.28-.17l6.04-.47v-11c0-5.87-.81-11.7-2.4-17.34h0c19.89,0,38.7-8.22,52.3-23.05l6.96-7.58-9.52-9.72Zm-107.46-50.43c12.24,0,22.2,9.96,22.2,22.2s-9.96,22.2-22.2,22.2-22.2-9.96-22.2-22.2,9.96-22.2,22.2-22.2Zm-3.1,58.26c-1.26,20.46-11.81,39.55-28.52,51.49l-.9.32c-1.2.43-2.41.79-3.63,1.12.18-2.14.41-4.27.72-6.37.4-2.71.91-5.42,1.54-8.05,5.01-21.27,16.57-36.37,29.87-39.43l.91.71c0,.07.01.14.02.22Zm-38.75,33.94l-1.71,7.74c-.76,4.15-1.25,8.41-1.52,12.7-1.75.11-3.51.14-5.27.05v-3.58c0-5.3.75-10.58,2.24-15.67l3.01-10.33-5.78.46c-19.5,1.54-38.27-5.84-51.49-20.26l-1.83-1.99,4.21-4.3c23.62-24.12,61.46-26.64,88.07-5.87-13.41,5.86-24.52,20.69-29.93,41.05Zm36.04,89.99l-.17-.05c-.42-.14-.85-.29-1.27-.45-8.56-3.26-16.23-11.58-21.6-23.42-1.76-3.89-3.25-8.13-4.44-12.6-2.16-8.13-3.25-16.77-3.25-25.67,0-.16,0-.32,0-.48,2.25-.49,4.49-1.13,6.69-1.91l1.93-.69.44-.31c13.44-9.43,23.37-22.98,28.52-38.28.31.89.64,1.78.99,2.66.13,5.99-.24,13.05-1.53,21.09-.93,5.77-2.16,11.27-3.76,16.81-.54,1.87-1.05,3.82-1.62,6.12h0c-.88,3.59-1.62,7.12-2.2,10.49-1.21,7.06-1.85,13.99-1.89,20.6-.03,4.36.2,8.62.67,12.66.57,4.84,1.47,9.38,2.7,13.5-.07-.02-.14-.04-.21-.07Zm12.6-91.76c-.23,3.64-.66,7.55-1.33,11.73-.93,5.79-2.17,11.31-3.77,16.87-.54,1.87-1.05,3.81-1.62,6.11-.88,3.58-1.62,7.09-2.2,10.45-1.21,7.04-1.84,13.94-1.88,20.52-.03,4.33.2,8.57.67,12.6.56,4.81,1.46,9.32,2.68,13.41l.27.9-1.12-.35.11-.33-.22.06c-1.23-4.15-2.15-8.71-2.71-13.58-.48-4.07-.7-8.34-.68-12.72.04-6.63.68-13.59,1.9-20.68.58-3.38,1.32-6.92,2.21-10.52l.97.24-.97-.24c.57-2.31,1.09-4.26,1.63-6.14,1.59-5.53,2.82-11.01,3.75-16.75.84-5.19,1.29-9.97,1.46-14.32l.86,2.75Zm28.5,55.24c-1.18,4.46-2.68,8.71-4.44,12.6-5.36,11.84-13.03,20.16-21.59,23.42-.42.16-.85.31-1.27.45-1.29.41-2.62.71-4.06.91l-.07-.19c-.41-1.16-.81-2.44-1.19-3.81-.08-.3-.16-.62-.24-.95l-.12-.48c-.28-1.14-.56-2.38-.81-3.68-1.03-5.27-1.55-11.05-1.56-17.18,0-3.06.1-5.92.32-8.75.24-3.06.66-6.46,1.24-10.09.19-1.16.38-2.32.6-3.51.15-.82.33-1.66.51-2.5l.12-.57c.81-3.82,1.61-7.08,2.52-10.23,2.61-9.06,4.16-17.3,4.98-24.71,5.09,7.41,11.49,13.95,18.98,19.21l.44.31,1.93.69c2.28.81,4.59,1.46,6.92,1.96,0,.48.03.96.03,1.43,0,8.91-1.09,17.55-3.25,25.68Zm-27.69-87.95c12.71,3.83,23.5,18.67,28.3,39.04.63,2.66,1.14,5.37,1.54,8.05.26,1.79.46,3.6.63,5.42-1.27-.34-2.54-.72-3.79-1.16l-.9-.32c-9.8-7-17.47-16.47-22.4-27.23-.16-10.55-1.81-18.54-3.38-23.79Zm96.53,4.6c-13.22,14.41-31.99,21.79-51.49,20.26l-5.78-.46,3.01,10.33c1.48,5.09,2.24,10.37,2.24,15.67v3.58c-1.7.08-3.4.07-5.08-.04-.29-3.97-.76-7.9-1.46-11.74l-1.72-7.75c-5.53-20.85-17.06-35.91-30.91-41.45l.65-.51c26.61-20.84,64.51-18.34,88.16,5.81l4.21,4.3-1.83,1.99Z"/></g></svg>